<svg width="16" height="16" viewBox="0 0 16 16" fill="none" xmlns="http://www.w3.org/2000/svg">
<path d="M7.99429 0C3.57459 0 0 3.6 0 8.04571C0 12.0571 2.92363 15.3943 6.74946 16V10.3771H4.71663V8.04571H6.74946V6.27429C6.74946 4.25143 7.94861 3.14286 9.76445 3.14286C10.6438 3.14286 11.5575 3.30286 11.5575 3.30286V5.28H10.5525C9.55889 5.28 9.25054 5.89714 9.25054 6.53714V8.04571H11.4661L11.1121 10.3771H9.25054V16C13.0764 15.3943 16 12.0686 16 8.04571C16 3.6 12.4254 0 8.00571 0H7.99429Z" fill="#FCFCFE"/>
</svg>
