<svg width="28" height="28" viewBox="0 0 28 28" fill="none" xmlns="http://www.w3.org/2000/svg">
<path d="M24.5002 13.4168C24.5002 19.5418 19.5418 24.5002 13.4168 24.5002C7.29183 24.5002 2.3335 19.5418 2.3335 13.4168C2.3335 7.29183 7.29183 2.3335 13.4168 2.3335" stroke="#979798" stroke-width="2" stroke-linecap="round" stroke-linejoin="round"/>
<path opacity="0.4" d="M25.6668 25.6668L23.3335 23.3335" stroke="#979798" stroke-width="2" stroke-linecap="round" stroke-linejoin="round"/>
<path opacity="0.4" d="M16.9166 7.15192C16.5082 5.86859 16.9866 4.27026 18.3399 3.83859C19.0516 3.60526 19.9266 3.80359 20.4282 4.49192C20.8949 3.78026 21.8049 3.61692 22.5049 3.83859C23.8582 4.27026 24.3366 5.86859 23.9282 7.15192C23.2866 9.19359 21.0466 10.2553 20.4282 10.2553C19.7982 10.2553 17.5816 9.21692 16.9166 7.15192Z" stroke="#979798" stroke-width="2" stroke-linecap="round" stroke-linejoin="round"/>
</svg>
