<svg width="28" height="29" viewBox="0 0 28 29" fill="none" xmlns="http://www.w3.org/2000/svg">
<path d="M24.5002 13.491C24.5002 19.616 19.5418 24.5744 13.4168 24.5744C7.29183 24.5744 2.3335 19.616 2.3335 13.491C2.3335 7.36605 7.29183 2.40771 13.4168 2.40771" stroke="#4A88D9" stroke-width="2" stroke-linecap="round" stroke-linejoin="round"/>
<path opacity="0.4" d="M25.6668 25.741L23.3335 23.4077" stroke="#4A88D9" stroke-width="2" stroke-linecap="round" stroke-linejoin="round"/>
<path opacity="0.4" d="M16.9166 7.22614C16.5082 5.94281 16.9866 4.34448 18.3399 3.91281C19.0516 3.67948 19.9266 3.87781 20.4282 4.56614C20.8949 3.85448 21.8049 3.69114 22.5049 3.91281C23.8582 4.34448 24.3366 5.94281 23.9282 7.22614C23.2866 9.26781 21.0466 10.3295 20.4282 10.3295C19.7982 10.3295 17.5816 9.29114 16.9166 7.22614Z" stroke="#4A88D9" stroke-width="2" stroke-linecap="round" stroke-linejoin="round"/>
</svg>
