<svg width="120" height="120" viewBox="0 0 120 120" fill="none" xmlns="http://www.w3.org/2000/svg">
<mask id="path-2-outside-1_632_5633" maskUnits="userSpaceOnUse" x="8" y="6.49976" width="104" height="103" fill="black">
<rect fill="white" x="8" y="6.49976" width="104" height="103"/>
<path d="M17.9868 25.9963C18.9448 27.4972 20.1332 28.5322 21.4296 29.255C26.1425 23.9403 32.0782 19.6839 38.7864 16.8232C38.5963 15.5043 38.1458 14.175 37.3137 12.8714C35.7087 10.3568 32.9368 9.1131 30.3462 9.52601C27.8911 9.91724 25.7355 11.7666 24.8817 15.0964C21.5782 14.5884 19.0793 15.9 17.76 18.0706C16.3705 20.3632 16.3817 23.4817 17.9868 25.9963Z"/>
<path d="M24.046 30.3068C25.8713 30.8124 27.8045 30.9603 29.5121 31.0899C29.6888 31.1033 29.863 31.1167 30.0345 31.1304C30.351 31.1611 30.653 31.1867 30.9357 31.2069C31.5465 31.2582 32.1823 31.2999 32.7774 31.2675C33.4704 31.2288 34.199 31.0863 34.8192 30.6651C35.4395 30.2439 35.8544 29.6099 36.1627 28.9685C36.4714 28.3256 36.7104 27.5918 36.9325 26.904C37.051 26.5367 37.1718 26.1702 37.295 25.8045C37.3868 25.5303 37.4806 25.25 37.5745 24.9645C37.7358 24.5092 37.9177 23.939 38.093 23.301C38.3723 22.3342 38.615 21.3302 38.7579 20.316C38.9181 19.1774 38.9566 18.0045 38.7864 16.8232C32.0782 19.6839 26.1425 23.9403 21.4296 29.255C22.2676 29.7222 23.1508 30.059 24.046 30.3068Z"/>
<path d="M109.725 65.9667C110.959 54.8088 107.98 44.0745 102.002 35.2039C86.2319 78.7353 62.5772 97.5279 42.7468 104.196L42.7699 104.204C46.6402 105.612 50.7192 106.657 54.8015 107.132C82.2608 110.363 106.854 91.9305 109.725 65.9667Z"/>
<path fill-rule="evenodd" clip-rule="evenodd" d="M40.6269 20.5958C40.8275 19.17 40.8639 17.6491 40.5831 16.0976C48.1024 13.2275 56.5069 12.0796 65.1985 13.102C80.8573 14.9441 94.0702 23.4331 102.002 35.2039C86.2319 78.7353 62.5772 97.5279 42.7468 104.196C31.7935 107.879 22.0069 107.863 15.3602 106.274C18.4493 103.284 20.7482 99.5309 22.0396 95.3695C22.8249 92.8236 21.8726 90.1484 20.232 88.0792C12.7806 78.6818 8.89567 66.7424 10.275 54.2677C11.2611 45.3494 14.8102 37.3197 20.158 30.7513C21.2573 31.4172 22.414 31.872 23.5566 32.1882C25.5608 32.7434 27.6485 32.9018 29.3197 33.0285L29.3735 33.0326C29.5438 33.0455 29.7102 33.0583 29.8733 33.0713C30.1941 33.1024 30.5024 33.1285 30.7937 33.1494C31.4091 33.201 32.1496 33.2524 32.8769 33.2128L32.8794 33.2127C33.7229 33.1656 34.8368 32.9855 35.8578 32.2921C36.8788 31.5987 37.4799 30.6136 37.8552 29.833C38.2283 29.0557 38.5045 28.2004 38.7187 27.5368L38.7245 27.519C38.8403 27.1599 38.9585 26.8016 39.0789 26.444L39.0802 26.4403C39.1696 26.1733 39.2626 25.8953 39.3561 25.6113C39.5307 25.1167 39.7226 24.5131 39.9066 23.8447C40.1999 22.828 40.467 21.7304 40.6269 20.5958ZM78.4293 45.1217C78.9949 46.1313 82.1998 46.4821 84.3342 45.2071C86.472 43.9368 87.7799 40.8986 87.2162 39.8848C87.1699 39.8022 87.1238 39.7211 87.0783 39.6412C86.3303 38.3269 85.7794 37.359 88.2379 35.5039C90.5822 33.7351 91.4662 35.4044 92.1922 36.7752C92.2738 36.9293 92.3535 37.0797 92.4329 37.221C93.336 38.8367 91.7597 44.734 85.9917 48.1677C80.2237 51.6015 74.4856 50.0636 73.5822 48.4493C73.504 48.3095 73.4184 48.1652 73.3307 48.0172C72.5401 46.6831 71.5735 45.0524 74.2379 43.8417C77.0293 42.5733 77.5651 43.5491 78.2946 44.8777C78.3386 44.9579 78.3833 45.0394 78.4293 45.1217Z"/>
<path d="M84.3342 45.2071C82.1998 46.4821 78.9949 46.1313 78.4293 45.1217C78.3833 45.0394 78.3386 44.9579 78.2946 44.8777C77.5651 43.5491 77.0293 42.5733 74.2379 43.8417C71.5735 45.0524 72.5401 46.6831 73.3307 48.0172C73.4184 48.1652 73.504 48.3095 73.5822 48.4493C74.4856 50.0636 80.2237 51.6015 85.9917 48.1677C91.7597 44.734 93.336 38.8367 92.4329 37.221C92.3535 37.0797 92.2738 36.9293 92.1922 36.7752C91.4662 35.4044 90.5822 33.7351 88.2379 35.5039C85.7794 37.359 86.3303 38.3269 87.0783 39.6412C87.1238 39.7211 87.1699 39.8022 87.2162 39.8848C87.7799 40.8986 86.472 43.9368 84.3342 45.2071Z"/>
</mask>
<path d="M17.9868 25.9963C18.9448 27.4972 20.1332 28.5322 21.4296 29.255C26.1425 23.9403 32.0782 19.6839 38.7864 16.8232C38.5963 15.5043 38.1458 14.175 37.3137 12.8714C35.7087 10.3568 32.9368 9.1131 30.3462 9.52601C27.8911 9.91724 25.7355 11.7666 24.8817 15.0964C21.5782 14.5884 19.0793 15.9 17.76 18.0706C16.3705 20.3632 16.3817 23.4817 17.9868 25.9963Z" fill="#1D4392"/>
<path d="M24.046 30.3068C25.8713 30.8124 27.8045 30.9603 29.5121 31.0899C29.6888 31.1033 29.863 31.1167 30.0345 31.1304C30.351 31.1611 30.653 31.1867 30.9357 31.2069C31.5465 31.2582 32.1823 31.2999 32.7774 31.2675C33.4704 31.2288 34.199 31.0863 34.8192 30.6651C35.4395 30.2439 35.8544 29.6099 36.1627 28.9685C36.4714 28.3256 36.7104 27.5918 36.9325 26.904C37.051 26.5367 37.1718 26.1702 37.295 25.8045C37.3868 25.5303 37.4806 25.25 37.5745 24.9645C37.7358 24.5092 37.9177 23.939 38.093 23.301C38.3723 22.3342 38.615 21.3302 38.7579 20.316C38.9181 19.1774 38.9566 18.0045 38.7864 16.8232C32.0782 19.6839 26.1425 23.9403 21.4296 29.255C22.2676 29.7222 23.1508 30.059 24.046 30.3068Z" fill="#1D4392"/>
<path d="M109.725 65.9667C110.959 54.8088 107.98 44.0745 102.002 35.2039C86.2319 78.7353 62.5772 97.5279 42.7468 104.196L42.7699 104.204C46.6402 105.612 50.7192 106.657 54.8015 107.132C82.2608 110.363 106.854 91.9305 109.725 65.9667Z" fill="#052DA6"/>
<path fill-rule="evenodd" clip-rule="evenodd" d="M40.6269 20.5958C40.8275 19.17 40.8639 17.6491 40.5831 16.0976C48.1024 13.2275 56.5069 12.0796 65.1985 13.102C80.8573 14.9441 94.0702 23.4331 102.002 35.2039C86.2319 78.7353 62.5772 97.5279 42.7468 104.196C31.7935 107.879 22.0069 107.863 15.3602 106.274C18.4493 103.284 20.7482 99.5309 22.0396 95.3695C22.8249 92.8236 21.8726 90.1484 20.232 88.0792C12.7806 78.6818 8.89567 66.7424 10.275 54.2677C11.2611 45.3494 14.8102 37.3197 20.158 30.7513C21.2573 31.4172 22.414 31.872 23.5566 32.1882C25.5608 32.7434 27.6485 32.9018 29.3197 33.0285L29.3735 33.0326C29.5438 33.0455 29.7102 33.0583 29.8733 33.0713C30.1941 33.1024 30.5024 33.1285 30.7937 33.1494C31.4091 33.201 32.1496 33.2524 32.8769 33.2128L32.8794 33.2127C33.7229 33.1656 34.8368 32.9855 35.8578 32.2921C36.8788 31.5987 37.4799 30.6136 37.8552 29.833C38.2283 29.0557 38.5045 28.2004 38.7187 27.5368L38.7245 27.519C38.8403 27.1599 38.9585 26.8016 39.0789 26.444L39.0802 26.4403C39.1696 26.1733 39.2626 25.8953 39.3561 25.6113C39.5307 25.1167 39.7226 24.5131 39.9066 23.8447C40.1999 22.828 40.467 21.7304 40.6269 20.5958ZM78.4293 45.1217C78.9949 46.1313 82.1998 46.4821 84.3342 45.2071C86.472 43.9368 87.7799 40.8986 87.2162 39.8848C87.1699 39.8022 87.1238 39.7211 87.0783 39.6412C86.3303 38.3269 85.7794 37.359 88.2379 35.5039C90.5822 33.7351 91.4662 35.4044 92.1922 36.7752C92.2738 36.9293 92.3535 37.0797 92.4329 37.221C93.336 38.8367 91.7597 44.734 85.9917 48.1677C80.2237 51.6015 74.4856 50.0636 73.5822 48.4493C73.504 48.3095 73.4184 48.1652 73.3307 48.0172C72.5401 46.6831 71.5735 45.0524 74.2379 43.8417C77.0293 42.5733 77.5651 43.5491 78.2946 44.8777C78.3386 44.9579 78.3833 45.0394 78.4293 45.1217Z" fill="#4A86D9"/>
<path d="M84.3342 45.2071C82.1998 46.4821 78.9949 46.1313 78.4293 45.1217C78.3833 45.0394 78.3386 44.9579 78.2946 44.8777C77.5651 43.5491 77.0293 42.5733 74.2379 43.8417C71.5735 45.0524 72.5401 46.6831 73.3307 48.0172C73.4184 48.1652 73.504 48.3095 73.5822 48.4493C74.4856 50.0636 80.2237 51.6015 85.9917 48.1677C91.7597 44.734 93.336 38.8367 92.4329 37.221C92.3535 37.0797 92.2738 36.9293 92.1922 36.7752C91.4662 35.4044 90.5822 33.7351 88.2379 35.5039C85.7794 37.359 86.3303 38.3269 87.0783 39.6412C87.1238 39.7211 87.1699 39.8022 87.2162 39.8848C87.7799 40.8986 86.472 43.9368 84.3342 45.2071Z" fill="#052DA6"/>
<path d="M38.7864 16.8232L38.4922 16.1333L38.4922 16.1333L38.7864 16.8232ZM40.5831 16.0976L40.8505 16.7983C41.1877 16.6696 41.3854 16.3191 41.3211 15.964L40.5831 16.0976ZM20.158 30.7513L19.7694 31.3927C20.0895 31.5866 20.5034 31.5149 20.7397 31.2248L20.158 30.7513ZM21.4296 29.255L20.8685 28.7574L21.4296 29.255ZM16.4094 27.0675L15.7772 27.471L16.4094 27.0675ZM16.1586 17.038L16.8 17.4267L16.8001 17.4265L16.1586 17.038ZM16.1599 17.0358L15.519 16.6463L15.5184 16.6473L16.1599 17.0358ZM23.5695 13.0401L23.5644 13.7901C23.8706 13.7922 24.1473 13.6079 24.2635 13.3246L23.5695 13.0401ZM30.0578 7.60086L30.1758 8.34151L30.1758 8.34151L30.0578 7.60086ZM38.8911 11.8002L39.5233 11.3967L39.5233 11.3967L38.8911 11.8002ZM102.708 35.4594C102.849 35.0699 102.647 34.6398 102.258 34.4988C101.868 34.3577 101.438 34.559 101.297 34.9484L102.708 35.4594ZM42.5136 104.909C42.9029 105.051 43.3332 104.85 43.4748 104.461C43.6163 104.072 43.4155 103.641 43.0263 103.5L42.5136 104.909ZM41.1811 102.857C40.7976 102.7 40.3598 102.884 40.2032 103.268C40.0466 103.651 40.2305 104.089 40.6139 104.246L41.1811 102.857ZM42.7468 104.196L42.4918 104.901L42.7468 104.196ZM84.3342 45.2071L83.9511 44.5623L83.9496 44.5632L84.3342 45.2071ZM78.4293 45.1217L77.7745 45.4874L77.775 45.4883L78.4293 45.1217ZM74.2379 43.8417L73.9276 43.1589L74.2379 43.8417ZM73.5822 48.4493L74.2367 48.083L74.2367 48.083L73.5822 48.4493ZM92.4329 37.221L93.0876 36.8551L93.0866 36.8532L92.4329 37.221ZM88.2379 35.5039L88.6897 36.1026L88.2379 35.5039ZM87.2162 39.8848L87.8717 39.5203L87.8707 39.5185L87.2162 39.8848ZM87.0783 39.6412L86.4265 40.0122L86.4265 40.0122L87.0783 39.6412ZM92.1922 36.7752L92.855 36.4242L92.855 36.4242L92.1922 36.7752ZM73.3307 48.0172L73.9759 47.6348L73.9759 47.6348L73.3307 48.0172ZM78.2946 44.8777L78.952 44.5168L78.952 44.5168L78.2946 44.8777ZM40.3156 15.3969C39.7019 15.6311 39.094 15.8767 38.4922 16.1333L39.0806 17.5131C39.6647 17.264 40.2548 17.0257 40.8505 16.7983L40.3156 15.3969ZM20.8685 28.7574C20.4272 29.2551 19.9964 29.762 19.5764 30.2777L20.7397 31.2248C21.1462 30.7254 21.5634 30.2346 21.9908 29.7526L20.8685 28.7574ZM38.4922 16.1333C31.6843 19.0365 25.6567 23.3577 20.8685 28.7574L21.9908 29.7526C26.6283 24.5229 32.4721 20.3313 39.0806 17.5131L38.4922 16.1333ZM20.5466 30.1098C19.2496 29.324 18.0376 28.2243 17.0416 26.6639L15.7772 27.471C16.9044 29.2368 18.2878 30.4951 19.7694 31.3927L20.5466 30.1098ZM17.0416 26.6639C15.195 23.7709 15.1569 20.1378 16.8 17.4267L15.5172 16.6493C13.5656 19.8694 13.6363 24.1169 15.7772 27.471L17.0416 26.6639ZM16.8001 17.4265L16.8014 17.4244L15.5184 16.6473L15.5171 16.6494L16.8001 17.4265ZM16.8008 17.4254C18.1747 15.165 20.5697 13.7699 23.5644 13.7901L23.5746 12.2901C20.068 12.2665 17.1749 13.9219 15.519 16.6463L16.8008 17.4254ZM24.2635 13.3246C25.4389 10.4571 27.6376 8.746 30.1758 8.34151L29.9398 6.8602C26.8396 7.35425 24.2315 9.44783 22.8755 12.7557L24.2635 13.3246ZM30.1758 8.34151C33.2125 7.85752 36.4143 9.31377 38.259 12.2037L39.5233 11.3967C37.3813 8.04079 33.6089 6.27541 29.9397 6.8602L30.1758 8.34151ZM38.259 12.2037C39.1132 13.5421 39.6038 14.8985 39.8451 16.2312L41.3211 15.964C41.0471 14.4504 40.4885 12.9087 39.5233 11.3967L38.259 12.2037ZM42.9859 104.907C63.0734 98.1524 86.875 79.162 102.708 35.4594L101.297 34.9484C85.5888 78.3086 62.081 96.9035 42.5078 103.485L42.9859 104.907ZM43.0263 103.5C43.0179 103.497 43.0096 103.494 43.0019 103.491L42.4918 104.901C42.4994 104.904 42.5066 104.907 42.5136 104.909L43.0263 103.5ZM43.0019 103.491C42.2695 103.226 41.8145 103.116 41.1811 102.857L40.6139 104.246C41.2478 104.505 41.9432 104.703 42.4918 104.901L43.0019 103.491ZM83.9496 44.5632C83.038 45.1078 81.8582 45.3213 80.8293 45.272C80.3187 45.2476 79.8782 45.1596 79.5537 45.038C79.2038 44.9069 79.0968 44.7787 79.0836 44.7552L77.775 45.4883C78.0446 45.9695 78.5504 46.2638 79.0272 46.4426C79.5294 46.6308 80.1295 46.7402 80.7576 46.7703C82.0061 46.8301 83.496 46.5814 84.7189 45.8509L83.9496 44.5632ZM72.9277 48.8155C73.275 49.4361 73.9887 49.9192 74.8004 50.2605C75.6423 50.6145 76.7069 50.8664 77.9109 50.9497C80.3234 51.1168 83.3531 50.6114 86.3754 48.8122L85.608 47.5233C82.8623 49.1579 80.139 49.6004 78.0145 49.4533C76.9501 49.3796 76.0503 49.1589 75.3819 48.8778C74.6834 48.5841 74.3411 48.2695 74.2367 48.083L72.9277 48.8155ZM86.3754 48.8122C89.3971 47.0133 91.3304 44.5634 92.3911 42.3349C92.9208 41.2222 93.2394 40.1511 93.362 39.2291C93.4802 38.341 93.4322 37.4716 93.0876 36.8551L91.7783 37.5869C91.8852 37.7783 91.9788 38.2518 91.8751 39.0313C91.776 39.7767 91.5093 40.6975 91.0368 41.6903C90.0931 43.6728 88.3543 45.8884 85.608 47.5233L86.3754 48.8122ZM86.5607 40.2493C86.5773 40.2792 86.6316 40.4511 86.5651 40.8386C86.5036 41.1974 86.3546 41.6412 86.1178 42.1137C85.6401 43.0668 84.8658 44.0188 83.9511 44.5623L84.7174 45.8518C85.9404 45.1251 86.8889 43.9229 87.4588 42.7858C87.7457 42.2133 87.9516 41.628 88.0435 41.0923C88.1305 40.5853 88.1369 39.9973 87.8717 39.5203L86.5607 40.2493ZM87.8707 39.5185C87.8229 39.4331 87.7754 39.3497 87.7302 39.2702L86.4265 40.0122C86.4722 40.0924 86.517 40.1712 86.5617 40.2511L87.8707 39.5185ZM87.7302 39.2703C87.3234 38.5556 87.159 38.2113 87.2004 37.8642C87.2384 37.5455 87.4965 37.003 88.6897 36.1026L87.7862 34.9053C86.5209 35.86 85.8251 36.7289 85.711 37.6866C85.6002 38.6158 86.0852 39.4126 86.4265 40.0122L87.7302 39.2703ZM88.6897 36.1026C89.2194 35.7029 89.6028 35.5474 89.8663 35.5033C90.1069 35.4631 90.2784 35.5096 90.4324 35.6031C90.6069 35.7092 90.7873 35.8951 90.9801 36.1751C91.1727 36.4545 91.344 36.7762 91.5294 37.1262L92.855 36.4242C92.6774 36.0888 92.466 35.6878 92.2153 35.324C91.965 34.9607 91.6417 34.5828 91.2114 34.3213C90.7606 34.0473 90.2262 33.9224 89.6191 34.0238C89.0348 34.1215 88.4286 34.4206 87.7862 34.9053L88.6897 36.1026ZM91.5294 37.1262C91.6101 37.2786 91.6943 37.4376 91.7793 37.5887L93.0866 36.8532C93.0126 36.7217 92.9376 36.5801 92.855 36.4242L91.5294 37.1262ZM74.2367 48.083C74.1531 47.9337 74.0627 47.7811 73.9759 47.6348L72.6855 48.3995C72.7742 48.5492 72.8549 48.6854 72.9277 48.8155L74.2367 48.083ZM73.9759 47.6348C73.7742 47.2944 73.5887 46.9798 73.4493 46.6669C73.31 46.3544 73.2409 46.0946 73.2386 45.8755C73.2366 45.6771 73.2882 45.4864 73.4495 45.2822C73.6229 45.0626 73.9487 44.7969 74.5481 44.5246L73.9276 43.1589C73.1949 43.4919 72.6423 43.884 72.2724 44.3524C71.8903 44.8361 71.7333 45.3635 71.7387 45.8908C71.7439 46.3975 71.8981 46.8712 72.0792 47.2775C72.2601 47.6834 72.492 48.0729 72.6855 48.3996L73.9759 47.6348ZM74.5481 44.5246C75.9081 43.9066 76.476 43.9578 76.7385 44.0728C77.0337 44.2021 77.2367 44.5093 77.6372 45.2387L78.952 44.5168C78.6229 43.9175 78.1933 43.0725 77.3404 42.6989C76.4548 42.3109 75.3591 42.5085 73.9276 43.1589L74.5481 44.5246ZM77.6372 45.2387C77.681 45.3186 77.727 45.4023 77.7745 45.4874L79.0842 44.7561C79.0397 44.6764 78.9962 44.5972 78.952 44.5168L77.6372 45.2387ZM29.5121 31.0899L29.6256 29.5942H29.6256L29.5121 31.0899ZM24.046 30.3068L24.4465 28.8612L24.4462 28.8611L24.046 30.3068ZM30.0345 31.1304L30.1796 29.6374C30.171 29.6366 30.1624 29.6358 30.1537 29.6351L30.0345 31.1304ZM30.9357 31.2069L31.0612 29.7121C31.055 29.7116 31.0487 29.7111 31.0425 29.7107L30.9357 31.2069ZM32.7774 31.2675L32.8589 32.7653L32.861 32.7652L32.7774 31.2675ZM34.8192 30.6651L35.6619 31.906H35.6619L34.8192 30.6651ZM36.1627 28.9685L37.5146 29.6185L37.515 29.6177L36.1627 28.9685ZM36.9325 26.904L38.3599 27.3649L38.36 27.3645L36.9325 26.904ZM37.295 25.8045L38.7165 26.2835L38.7174 26.2807L37.295 25.8045ZM37.5745 24.9645L36.1606 24.4637C36.1568 24.4744 36.1531 24.4852 36.1496 24.496L37.5745 24.9645ZM38.093 23.301L36.6519 22.8847C36.6501 22.891 36.6483 22.8973 36.6466 22.9036L38.093 23.301ZM38.7579 20.316L40.2432 20.5253L40.2432 20.525L38.7579 20.316ZM38.7864 16.8232L37.3017 17.0372V17.0372L38.7864 16.8232ZM40.5831 16.0976L40.0482 14.6962C39.3739 14.9536 38.9785 15.6546 39.1071 16.3648L40.5831 16.0976ZM40.6269 20.5958L42.1122 20.8051L42.1122 20.8048L40.6269 20.5958ZM39.9066 23.8447L38.4653 23.4289C38.4636 23.4348 38.462 23.4408 38.4603 23.4467L39.9066 23.8447ZM39.3561 25.6113L37.9416 25.112C37.9381 25.1221 37.9346 25.1322 37.9313 25.1424L39.3561 25.6113ZM39.0802 26.4403L37.6578 25.9642L37.6577 25.9644L39.0802 26.4403ZM39.0789 26.444L40.5004 26.923L40.5015 26.9199L39.0789 26.444ZM38.7245 27.519L40.1519 27.9799L40.152 27.9795L38.7245 27.519ZM38.7187 27.5368L37.2913 27.0759L37.2913 27.076L38.7187 27.5368ZM37.8552 29.833L39.207 30.483L39.2074 30.4822L37.8552 29.833ZM35.8578 32.2921L35.0151 31.0512L35.8578 32.2921ZM32.8794 33.2127L32.9597 34.7105L32.963 34.7103L32.8794 33.2127ZM32.8769 33.2128L32.7966 31.715L32.7954 31.715L32.8769 33.2128ZM30.7937 33.1494L30.919 31.6546C30.913 31.6541 30.9071 31.6537 30.9011 31.6533L30.7937 33.1494ZM29.8733 33.0713L30.0179 31.5783C30.0094 31.5775 30.0008 31.5767 29.9923 31.576L29.8733 33.0713ZM29.3735 33.0326L29.487 31.5369L29.4869 31.5369L29.3735 33.0326ZM29.3197 33.0285L29.2062 34.5242L29.2063 34.5243L29.3197 33.0285ZM23.5566 32.1882L23.957 30.7426L23.9567 30.7426L23.5566 32.1882ZM20.158 30.7513L20.9352 29.4683C20.2952 29.0806 19.4673 29.2239 18.9948 29.8042L20.158 30.7513ZM21.4296 29.255L20.6992 30.5651L20.6992 30.5651L21.4296 29.255ZM17.9868 25.9963L19.2512 25.1892L17.9868 25.9963ZM17.76 18.0706L16.4782 17.2915L16.4772 17.2931L17.76 18.0706ZM24.8817 15.0964L24.6537 16.579C25.4161 16.6962 26.1431 16.2161 26.3346 15.4689L24.8817 15.0964ZM30.3462 9.52601L30.5822 11.0073L30.5822 11.0073L30.3462 9.52601ZM37.3137 12.8714L38.5781 12.0644V12.0644L37.3137 12.8714ZM65.1985 13.102L65.3738 11.6123L65.1985 13.102ZM102.002 35.2039L100.758 36.0422L102.002 35.2039ZM109.725 65.9667L111.216 66.1315L109.725 65.9667ZM54.8015 107.132L54.9768 105.643L54.9749 105.642L54.8015 107.132ZM42.7699 104.204L43.2826 102.795L43.281 102.794L42.7699 104.204ZM15.3602 106.274L14.317 105.196C13.9235 105.577 13.7688 106.142 13.9134 106.67C14.058 107.198 14.4788 107.605 15.0114 107.733L15.3602 106.274ZM22.0396 95.3695L23.4722 95.8141L23.473 95.8116L22.0396 95.3695ZM20.232 88.0792L21.4074 87.1473L21.4073 87.1472L20.232 88.0792ZM10.275 54.2677L8.78409 54.1029L10.275 54.2677ZM42.7468 104.196L43.2579 102.786C42.939 102.67 42.5903 102.666 42.2688 102.774L42.7468 104.196ZM29.6256 29.5942C27.8957 29.4629 26.108 29.3215 24.4465 28.8612L23.6456 31.7523C25.6345 32.3033 27.7132 32.4577 29.3986 32.5856L29.6256 29.5942ZM30.1537 29.6351C29.9795 29.6212 29.8031 29.6077 29.6256 29.5942L29.3986 32.5856C29.5745 32.5989 29.7466 32.6122 29.9152 32.6256L30.1537 29.6351ZM31.0425 29.7107C30.7737 29.6915 30.4845 29.667 30.1796 29.6374L29.8893 32.6233C30.2176 32.6552 30.5323 32.6819 30.8288 32.7031L31.0425 29.7107ZM32.6959 29.7697C32.2128 29.796 31.6665 29.763 31.0612 29.7121L30.8101 32.7016C31.4265 32.7534 32.1518 32.8038 32.8589 32.7653L32.6959 29.7697ZM33.9766 29.4242C33.6778 29.6271 33.2617 29.7382 32.6938 29.7699L32.861 32.7652C33.6792 32.7195 34.7202 32.5455 35.6619 31.906L33.9766 29.4242ZM34.8109 28.3186C34.552 28.857 34.2803 29.2179 33.9765 29.4242L35.6619 31.906C36.5987 31.2698 37.1568 30.3628 37.5146 29.6185L34.8109 28.3186ZM35.505 26.4432C35.2776 27.1475 35.0678 27.7834 34.8105 28.3193L37.515 29.6177C37.875 28.8678 38.1432 28.036 38.3599 27.3649L35.505 26.4432ZM35.8736 25.3256C35.7483 25.6974 35.6254 26.07 35.5049 26.4436L38.36 27.3645C38.4765 27.0034 38.5954 26.643 38.7165 26.2835L35.8736 25.3256ZM36.1496 24.496C36.0571 24.7771 35.9646 25.0536 35.8726 25.3284L38.7174 26.2807C38.8091 26.0069 38.9041 25.723 38.9994 25.4331L36.1496 24.496ZM36.6466 22.9036C36.4806 23.5077 36.3095 24.0433 36.1606 24.4637L38.9884 25.4654C39.1621 24.9751 39.3548 24.3704 39.5394 23.6983L36.6466 22.9036ZM37.2725 20.1068C37.1429 21.0273 36.9196 21.9582 36.6519 22.8847L39.5341 23.7173C39.825 22.7102 40.0872 21.633 40.2432 20.5253L37.2725 20.1068ZM37.3017 17.0372C37.4474 18.0479 37.4178 19.0748 37.2725 20.107L40.2432 20.525C40.4184 19.28 40.4659 17.961 40.271 16.6092L37.3017 17.0372ZM39.1071 16.3648C39.3532 17.7245 39.3254 19.0801 39.1415 20.3868L42.1122 20.8048C42.3296 19.2598 42.3747 17.5738 42.0591 15.8304L39.1071 16.3648ZM39.1415 20.3866C38.9948 21.4279 38.747 22.4526 38.4653 23.4289L41.3478 24.2605C41.6527 23.2034 41.9392 22.0329 42.1122 20.8051L39.1415 20.3866ZM38.4603 23.4467C38.2855 24.0818 38.1041 24.6516 37.9416 25.112L40.7705 26.1106C40.9572 25.5819 41.1597 24.9445 41.3528 24.2428L38.4603 23.4467ZM37.9313 25.1424C37.8392 25.4222 37.7473 25.6967 37.6578 25.9642L40.5026 26.9165C40.5918 26.65 40.6861 26.3684 40.7809 26.0802L37.9313 25.1424ZM37.6577 25.9644L37.6564 25.9682L40.5015 26.9199L40.5027 26.9162L37.6577 25.9644ZM37.6575 25.9651C37.5349 26.3287 37.4147 26.6932 37.2969 27.0585L40.152 27.9795C40.2659 27.6266 40.382 27.2744 40.5004 26.923L37.6575 25.9651ZM37.297 27.0581L37.2913 27.0759L40.1462 27.9977L40.1519 27.9799L37.297 27.0581ZM37.2913 27.076C37.0726 27.7533 36.8252 28.5126 36.5029 29.1838L39.2074 30.4822C39.6315 29.5989 39.9363 28.6476 40.1462 27.9976L37.2913 27.076ZM36.5033 29.1831C36.1775 29.8608 35.7195 30.5728 35.0151 31.0512L36.7005 33.533C38.038 32.6247 38.7823 31.3665 39.207 30.483L36.5033 29.1831ZM35.0151 31.0512C34.3155 31.5263 33.514 31.6749 32.7958 31.715L32.963 34.7103C33.9319 34.6563 35.3581 34.4446 36.7005 33.533L35.0151 31.0512ZM32.7992 31.7148L32.7966 31.715L32.9572 34.7107L32.9597 34.7105L32.7992 31.7148ZM32.7954 31.715C32.1792 31.7486 31.5274 31.7056 30.919 31.6546L30.6685 34.6442C31.2908 34.6963 32.1199 34.7562 32.9584 34.7106L32.7954 31.715ZM30.9011 31.6533C30.6232 31.6333 30.3273 31.6083 30.0179 31.5783L29.7287 34.5643C30.0609 34.5965 30.3816 34.6237 30.6863 34.6456L30.9011 31.6533ZM29.9923 31.576C29.8266 31.5629 29.6581 31.5499 29.487 31.5369L29.26 34.5283C29.4295 34.5412 29.5939 34.5538 29.7543 34.5666L29.9923 31.576ZM29.4869 31.5369L29.4331 31.5328L29.2063 34.5243L29.2601 34.5283L29.4869 31.5369ZM29.4332 31.5328C27.7438 31.4047 25.7989 31.2528 23.957 30.7426L23.1561 33.6338C25.3227 34.2339 27.5531 34.3988 29.2062 34.5242L29.4332 31.5328ZM23.9567 30.7426C22.9187 30.4552 21.8944 30.0493 20.9352 29.4683L19.3808 32.0342C20.6203 32.7851 21.9094 33.2887 23.1564 33.6339L23.9567 30.7426ZM24.4462 28.8611C23.6424 28.6387 22.8743 28.3431 22.1601 27.9449L20.6992 30.5651C21.6609 31.1013 22.6591 31.4793 23.6459 31.7524L24.4462 28.8611ZM22.1601 27.9449C21.0658 27.3348 20.0668 26.467 19.2512 25.1892L16.7224 26.8033C17.8228 28.5273 19.2006 29.7296 20.6992 30.5651L22.1601 27.9449ZM19.2512 25.1892C17.9408 23.1363 17.9614 20.6323 19.0428 18.848L16.4772 17.2931C14.7796 20.0942 14.8227 23.8271 16.7224 26.8033L19.2512 25.1892ZM19.0418 18.8497C20.0253 17.2315 21.9086 16.1569 24.6537 16.579L25.1096 13.6138C21.2478 13.02 18.1332 14.5685 16.4782 17.2915L19.0418 18.8497ZM26.3346 15.4689C27.0602 12.6395 28.7939 11.2923 30.5822 11.0073L30.1101 8.0447C26.9884 8.54217 24.4107 10.8938 23.4287 14.7238L26.3346 15.4689ZM30.5822 11.0073C32.5412 10.6951 34.7421 11.6305 36.0494 13.6785L38.5781 12.0644C36.6752 9.08318 33.3325 7.53111 30.1101 8.0447L30.5822 11.0073ZM36.0494 13.6785C36.7597 14.7914 37.1401 15.9162 37.3017 17.0372L40.271 16.6092C40.0524 15.0924 39.5319 13.5586 38.5781 12.0644L36.0494 13.6785ZM65.3738 11.6123C56.4396 10.5613 47.7916 11.7406 40.0482 14.6962L41.118 17.499C48.4133 14.7144 56.5742 13.5979 65.0233 14.5918L65.3738 11.6123ZM103.246 34.3657C95.0716 22.235 81.4698 13.5058 65.3738 11.6123L65.0233 14.5918C80.2447 16.3824 93.0688 24.6312 100.758 36.0422L103.246 34.3657ZM111.216 66.1315C112.491 54.5977 109.409 43.5111 103.246 34.3657L100.758 36.0422C106.551 44.6378 109.426 55.0199 108.234 65.8018L111.216 66.1315ZM54.6263 108.622C82.8306 111.94 108.245 93.0023 111.216 66.1315L108.234 65.8018C105.464 90.8586 81.691 108.785 54.9768 105.643L54.6263 108.622ZM42.2573 105.614C46.2185 107.055 50.4118 108.132 54.6282 108.622L54.9749 105.642C51.0266 105.183 47.062 104.169 43.2826 102.795L42.2573 105.614ZM20.607 94.9249C19.3892 98.8494 17.2227 102.384 14.317 105.196L16.4034 107.352C19.6759 104.184 22.1073 100.213 23.4722 95.8141L20.607 94.9249ZM19.0566 89.0111C20.5181 90.8545 21.194 93.0219 20.6063 94.9274L23.473 95.8116C24.4557 92.6254 23.227 89.4423 21.4074 87.1473L19.0566 89.0111ZM8.78409 54.1029C7.35812 66.9993 11.3783 79.3275 19.0566 89.0111L21.4073 87.1472C14.1829 78.036 10.4332 66.4855 11.7659 54.4326L8.78409 54.1029ZM18.9948 29.8042C13.4725 36.5869 9.80323 44.8857 8.78409 54.1029L11.7659 54.4326C12.719 45.813 16.1479 38.0524 21.3213 31.6983L18.9948 29.8042ZM15.0114 107.733C21.9527 109.393 32.0261 109.384 43.2249 105.618L42.2688 102.774C31.5609 106.375 22.0611 106.334 15.709 104.815L15.0114 107.733ZM42.2358 105.606L42.2589 105.615L43.281 102.794L43.2579 102.786L42.2358 105.606Z" fill="#ECF3FB" mask="url(#path-2-outside-1_632_5633)"/>
</svg>
