<svg width="120" height="120" viewBox="0 0 120 120" fill="none" xmlns="http://www.w3.org/2000/svg">
<g filter="url(#filter0_i_3477_4570)">
<g clip-path="url(#clip0_3477_4570)">
<path d="M17.9869 25.9962C18.945 27.4971 20.1333 28.5321 21.4297 29.2549C26.1426 23.9402 32.0783 19.6838 38.7865 16.8232C38.5964 15.5042 38.1459 14.1749 37.3138 12.8713C35.7088 10.3568 32.9369 9.11304 30.3463 9.52595C27.8912 9.91718 25.7356 11.7665 24.8818 15.0963C21.5783 14.5884 19.0794 15.9 17.7601 18.0705C16.3706 20.3631 16.3819 23.4816 17.9869 25.9962Z" fill="#979798"/>
<path d="M24.0461 30.3068C25.8714 30.8124 27.8046 30.9603 29.5122 31.0899C29.6889 31.1033 29.8631 31.1167 30.0346 31.1304C30.3511 31.1611 30.6531 31.1867 30.9358 31.2069C31.5466 31.2582 32.1824 31.2999 32.7775 31.2675C33.4705 31.2288 34.1991 31.0863 34.8193 30.6651C35.4396 30.2439 35.8545 29.6099 36.1628 28.9685C36.4715 28.3256 36.7105 27.5918 36.9326 26.904C37.0511 26.5367 37.1719 26.1702 37.2951 25.8045C37.3869 25.5303 37.4807 25.25 37.5746 24.9645C37.7359 24.5092 37.9178 23.939 38.0931 23.301C38.3724 22.3342 38.6151 21.3302 38.758 20.316C38.9182 19.1774 38.9567 18.0045 38.7865 16.8232C32.0783 19.6839 26.1426 23.9403 21.4297 29.255C22.2677 29.7222 23.1509 30.059 24.0461 30.3068Z" fill="#979798"/>
<path d="M109.725 65.9667C110.959 54.8088 107.98 44.0745 102.002 35.2039C86.2319 78.7353 62.5772 97.5279 42.7468 104.196L42.7699 104.204C46.6402 105.612 50.7192 106.657 54.8015 107.132C82.2608 110.363 106.854 91.9305 109.725 65.9667Z" fill="#979798"/>
<path fill-rule="evenodd" clip-rule="evenodd" d="M40.6269 20.5957C40.8275 19.1699 40.8639 17.649 40.5831 16.0975C48.1024 13.2274 56.5069 12.0795 65.1985 13.102C80.8573 14.944 94.0702 23.433 102.002 35.2038C86.2319 78.7352 62.5772 97.5278 42.7468 104.196C31.7935 107.879 22.0069 107.863 15.3602 106.274C18.4493 103.284 20.7482 99.5308 22.0396 95.3694C22.8248 92.8235 21.8726 90.1483 20.232 88.0791C12.7806 78.6817 8.89567 66.7423 10.275 54.2676C11.2611 45.3493 14.8102 37.3196 20.158 30.7512C21.2573 31.4171 22.414 31.8719 23.5566 32.1881C25.5608 32.7433 27.6485 32.9017 29.3197 33.0284L29.3735 33.0325C29.5438 33.0454 29.7102 33.0582 29.8733 33.0712C30.1941 33.1023 30.5024 33.1284 30.7937 33.1493C31.4091 33.2009 32.1496 33.2523 32.8769 33.2127L32.8794 33.2126C33.7229 33.1655 34.8368 32.9854 35.8578 32.292C36.8788 31.5986 37.4799 30.6135 37.8552 29.8329C38.2283 29.0556 38.5045 28.2003 38.7187 27.5367L38.7245 27.5189C38.8403 27.1598 38.9585 26.8015 39.0789 26.4439L39.0802 26.4402C39.1696 26.1732 39.2626 25.8952 39.3561 25.6112C39.5307 25.1166 39.7226 24.513 39.9066 23.8446C40.1999 22.8279 40.467 21.7303 40.6269 20.5957ZM78.4293 45.1216C78.9949 46.1312 82.1998 46.482 84.3342 45.207C86.472 43.9367 87.7799 40.8985 87.2162 39.8847C87.1699 39.8021 87.1238 39.721 87.0783 39.6411C86.3303 38.3268 85.7794 37.3589 88.2379 35.5038C90.5822 33.735 91.4662 35.4043 92.1922 36.7751C92.2738 36.9292 92.3535 37.0796 92.4329 37.2209C93.336 38.8366 91.7597 44.7339 85.9917 48.1676C80.2237 51.6014 74.4856 50.0635 73.5822 48.4492C73.504 48.3094 73.4184 48.1651 73.3307 48.0171C72.5401 46.683 71.5735 45.0523 74.2379 43.8416C77.0293 42.5732 77.5651 43.549 78.2946 44.8776C78.3386 44.9578 78.3833 45.0393 78.4293 45.1216Z" fill="#C7C7C7"/>
</g>
</g>
<defs>
<filter id="filter0_i_3477_4570" x="2" y="3" width="108" height="105" filterUnits="userSpaceOnUse" color-interpolation-filters="sRGB">
<feFlood flood-opacity="0" result="BackgroundImageFix"/>
<feBlend mode="normal" in="SourceGraphic" in2="BackgroundImageFix" result="shape"/>
<feColorMatrix in="SourceAlpha" type="matrix" values="0 0 0 0 0 0 0 0 0 0 0 0 0 0 0 0 0 0 127 0" result="hardAlpha"/>
<feOffset dx="-8" dy="-4"/>
<feGaussianBlur stdDeviation="7"/>
<feComposite in2="hardAlpha" operator="arithmetic" k2="-1" k3="1"/>
<feColorMatrix type="matrix" values="0 0 0 0 0 0 0 0 0 0 0 0 0 0 0 0 0 0 0.25 0"/>
<feBlend mode="normal" in2="shape" result="effect1_innerShadow_3477_4570"/>
</filter>
<clipPath id="clip0_3477_4570">
<rect width="100" height="101" fill="white" transform="translate(10 7)"/>
</clipPath>
</defs>
</svg>
