<svg width="22" height="20" viewBox="0 0 22 20" fill="none" xmlns="http://www.w3.org/2000/svg">
<path fill-rule="evenodd" clip-rule="evenodd" d="M6.671 16.8591C6.80147 16.9594 6.93007 17.0585 7.05632 17.1564C7.28676 17.3413 7.50842 17.5148 7.71779 17.6744C8.16641 18.0251 8.63913 18.3814 9.117 18.6611C9.674 18.9861 10.31 19.2511 11 19.2511C11.69 19.2511 12.326 18.9861 12.883 18.6611C13.441 18.3351 13.99 17.9051 14.503 17.5011C14.7769 17.2852 15.0522 17.0712 15.329 16.8591C15.5361 16.6996 15.7477 16.5367 15.962 16.3699C16.3127 16.1097 16.7363 15.7737 17.1884 15.3832C17.884 14.7985 18.5698 14.1671 19.183 13.4771C20.64 11.8371 21.75 9.80307 21.75 7.13807C21.75 4.42607 20.215 2.07407 18 1.06107C15.901 0.101069 13.312 0.391069 11 2.46007C8.688 0.390069 6.099 0.100069 4 1.05907C1.786 2.07407 0.25 4.42607 0.25 7.13807C0.25 9.80307 1.36 11.8371 2.817 13.4771C3.983 14.7901 5.41 15.8891 6.671 16.8591Z" fill="#4A88D9"/>
</svg>
