<svg width="28" height="28" viewBox="0 0 28 28" fill="none" xmlns="http://www.w3.org/2000/svg">
<path d="M16.0205 25.3981L16.6529 24.3297L15.1469 23.4383L14.5144 24.5068L16.0205 25.3981ZM11.3464 24.3297L11.9789 25.3981L13.4848 24.5068L12.8524 23.4383L11.3464 24.3297ZM14.5144 24.5068C14.2896 24.8867 13.7098 24.8867 13.4848 24.5068L11.9789 25.3981C12.8814 26.923 15.1179 26.923 16.0205 25.3981L14.5144 24.5068ZM12.2497 3.2085H15.7497V1.4585H12.2497V3.2085ZM24.7913 12.2502V13.4168H26.5413V12.2502H24.7913ZM3.20801 13.4168V12.2502H1.45801V13.4168H3.20801ZM1.45801 13.4168C1.45801 14.7639 1.45753 15.8179 1.51554 16.6681C1.57409 17.5262 1.69511 18.2403 1.96865 18.9006L3.58544 18.231C3.41494 17.8194 3.31395 17.3179 3.26149 16.549C3.20849 15.7722 3.20801 14.7878 3.20801 13.4168H1.45801ZM9.10259 21.282C7.63791 21.2567 6.87044 21.1636 6.26886 20.9144L5.59917 22.5312C6.5383 22.9201 7.60795 23.0065 9.07244 23.0317L9.10259 21.282ZM1.96865 18.9006C2.6495 20.5443 3.95544 21.8503 5.59917 22.5312L6.26886 20.9144C5.05393 20.4111 4.08868 19.4459 3.58544 18.231L1.96865 18.9006ZM24.7913 13.4168C24.7913 14.7878 24.7909 15.7722 24.7379 16.549C24.6854 17.3179 24.5844 17.8194 24.4139 18.231L26.0307 18.9006C26.3043 18.2403 26.4253 17.5262 26.4838 16.6681C26.5418 15.8179 26.5413 14.7639 26.5413 13.4168H24.7913ZM18.9269 23.0317C20.3914 23.0065 21.4611 22.9201 22.4001 22.5312L21.7305 20.9144C21.1289 21.1636 20.3614 21.2567 18.8968 21.282L18.9269 23.0317ZM24.4139 18.231C23.9106 19.4459 22.9454 20.4111 21.7305 20.9144L22.4001 22.5312C24.0439 21.8503 25.3498 20.5443 26.0307 18.9006L24.4139 18.231ZM15.7497 3.2085C17.6761 3.2085 19.0595 3.20942 20.1386 3.31201C21.2047 3.41337 21.883 3.60776 22.4237 3.93916L23.3381 2.44704C22.4761 1.91883 21.4983 1.68342 20.3042 1.56988C19.1231 1.45757 17.6422 1.4585 15.7497 1.4585V3.2085ZM26.5413 12.2502C26.5413 10.3576 26.5423 8.87674 26.4299 7.69562C26.3164 6.50148 26.081 5.52369 25.5528 4.66173L24.0607 5.57611C24.3921 6.11689 24.5865 6.79523 24.6879 7.86127C24.7904 8.94033 24.7913 10.3237 24.7913 12.2502H26.5413ZM22.4237 3.93916C23.0909 4.348 23.6519 4.90894 24.0607 5.57611L25.5528 4.66173C24.9997 3.75909 24.2408 3.00018 23.3381 2.44704L22.4237 3.93916ZM12.2497 1.4585C10.3571 1.4585 8.87626 1.45757 7.69514 1.56988C6.50099 1.68342 5.5232 1.91883 4.66124 2.44704L5.57562 3.93916C6.1164 3.60776 6.79474 3.41337 7.86078 3.31201C8.93984 3.20942 10.3232 3.2085 12.2497 3.2085V1.4585ZM3.20801 12.2502C3.20801 10.3237 3.20893 8.94033 3.31153 7.86127C3.41289 6.79523 3.60728 6.11689 3.93867 5.57611L2.44655 4.66173C1.91834 5.52369 1.68293 6.50148 1.56939 7.69562C1.45709 8.87674 1.45801 10.3576 1.45801 12.2502H3.20801ZM4.66124 2.44704C3.7586 3.00018 2.99969 3.75909 2.44655 4.66173L3.93867 5.57611C4.34751 4.90894 4.90845 4.348 5.57562 3.93916L4.66124 2.44704ZM12.8524 23.4383C12.6155 23.0381 12.4076 22.6849 12.2055 22.4075C11.9924 22.1154 11.7482 21.8523 11.4095 21.6552L10.5297 23.1681C10.585 23.2001 10.6603 23.2588 10.7912 23.4383C10.9328 23.6326 11.0927 23.9011 11.3464 24.3297L12.8524 23.4383ZM9.07244 23.0317C9.58472 23.0405 9.90919 23.0471 10.1565 23.0744C10.3877 23.1 10.4772 23.1375 10.5297 23.1681L11.4095 21.6552C11.068 21.4566 10.7125 21.3752 10.3491 21.335C10.002 21.2966 9.58238 21.2903 9.10259 21.282L9.07244 23.0317ZM16.6529 24.3297C16.9065 23.9011 17.0665 23.6326 17.2081 23.4383C17.3389 23.2588 17.4143 23.2001 17.4696 23.1681L16.5898 21.6552C16.2511 21.8523 16.0068 22.1154 15.7939 22.4075C15.5917 22.6849 15.3838 23.0381 15.1469 23.4383L16.6529 24.3297ZM18.8968 21.282C18.4169 21.2903 17.9974 21.2966 17.6502 21.335C17.2868 21.3752 16.9314 21.4566 16.5898 21.6552L17.4696 23.1681C17.5221 23.1375 17.6117 23.1 17.8428 23.0744C18.0901 23.0471 18.4146 23.0405 18.9269 23.0317L18.8968 21.282Z" fill="#4A88D9"/>
<path opacity="0.5" d="M9.33301 10.5H18.6663" stroke="#4A88D9" stroke-width="2" stroke-linecap="round"/>
<path opacity="0.5" d="M9.33301 14.5835H15.7497" stroke="#4A88D9" stroke-width="2" stroke-linecap="round"/>
</svg>
