<svg width="28" height="28" viewBox="0 0 28 28" fill="none" xmlns="http://www.w3.org/2000/svg">
<path d="M16.0209 25.3981L16.6534 24.3297L15.1473 23.4383L14.5149 24.5068L16.0209 25.3981ZM11.3469 24.3297L11.9794 25.3981L13.4853 24.5068L12.8529 23.4383L11.3469 24.3297ZM14.5149 24.5068C14.2901 24.8867 13.7102 24.8867 13.4853 24.5068L11.9794 25.3981C12.8819 26.923 15.1184 26.923 16.0209 25.3981L14.5149 24.5068ZM12.2502 3.2085H15.7502V1.4585H12.2502V3.2085ZM24.7918 12.2502V13.4168H26.5418V12.2502H24.7918ZM3.2085 13.4168V12.2502H1.4585V13.4168H3.2085ZM1.4585 13.4168C1.4585 14.7639 1.45802 15.8179 1.51602 16.6681C1.57458 17.5262 1.6956 18.2403 1.96913 18.9006L3.58592 18.231C3.41543 17.8194 3.31444 17.3179 3.26198 16.549C3.20897 15.7722 3.2085 14.7878 3.2085 13.4168H1.4585ZM9.10308 21.282C7.6384 21.2567 6.87093 21.1636 6.26935 20.9144L5.59966 22.5312C6.53879 22.9201 7.60844 23.0065 9.07293 23.0317L9.10308 21.282ZM1.96913 18.9006C2.64999 20.5443 3.95593 21.8503 5.59966 22.5312L6.26935 20.9144C5.05442 20.4111 4.08917 19.4459 3.58592 18.231L1.96913 18.9006ZM24.7918 13.4168C24.7918 14.7878 24.7914 15.7722 24.7384 16.549C24.6859 17.3179 24.5849 17.8194 24.4144 18.231L26.0312 18.9006C26.3048 18.2403 26.4257 17.5262 26.4843 16.6681C26.5423 15.8179 26.5418 14.7639 26.5418 13.4168H24.7918ZM18.9273 23.0317C20.3919 23.0065 21.4616 22.9201 22.4006 22.5312L21.731 20.9144C21.1294 21.1636 20.3619 21.2567 18.8972 21.282L18.9273 23.0317ZM24.4144 18.231C23.9111 19.4459 22.9459 20.4111 21.731 20.9144L22.4006 22.5312C24.0443 21.8503 25.3503 20.5443 26.0312 18.9006L24.4144 18.231ZM15.7502 3.2085C17.6766 3.2085 19.06 3.20942 20.139 3.31201C21.2051 3.41337 21.8834 3.60776 22.4242 3.93916L23.3386 2.44704C22.4766 1.91883 21.4988 1.68342 20.3047 1.56988C19.1236 1.45757 17.6427 1.4585 15.7502 1.4585V3.2085ZM26.5418 12.2502C26.5418 10.3576 26.5428 8.87674 26.4304 7.69562C26.3169 6.50148 26.0815 5.52369 25.5533 4.66173L24.0611 5.57611C24.3926 6.11689 24.587 6.79523 24.6883 7.86127C24.7909 8.94033 24.7918 10.3237 24.7918 12.2502H26.5418ZM22.4242 3.93916C23.0914 4.348 23.6523 4.90894 24.0611 5.57611L25.5533 4.66173C25.0002 3.75909 24.2413 3.00018 23.3386 2.44704L22.4242 3.93916ZM12.2502 1.4585C10.3576 1.4585 8.87674 1.45757 7.69562 1.56988C6.50148 1.68342 5.52369 1.91883 4.66173 2.44704L5.57611 3.93916C6.11689 3.60776 6.79523 3.41337 7.86127 3.31201C8.94033 3.20942 10.3237 3.2085 12.2502 3.2085V1.4585ZM3.2085 12.2502C3.2085 10.3237 3.20942 8.94033 3.31201 7.86127C3.41337 6.79523 3.60776 6.11689 3.93916 5.57611L2.44704 4.66173C1.91883 5.52369 1.68342 6.50148 1.56988 7.69562C1.45757 8.87674 1.4585 10.3576 1.4585 12.2502H3.2085ZM4.66173 2.44704C3.75909 3.00018 3.00018 3.75909 2.44704 4.66173L3.93916 5.57611C4.348 4.90894 4.90894 4.348 5.57611 3.93916L4.66173 2.44704ZM12.8529 23.4383C12.616 23.0381 12.4081 22.6849 12.2059 22.4075C11.9929 22.1154 11.7487 21.8523 11.41 21.6552L10.5302 23.1681C10.5855 23.2001 10.6608 23.2588 10.7917 23.4383C10.9333 23.6326 11.0932 23.9011 11.3469 24.3297L12.8529 23.4383ZM9.07293 23.0317C9.5852 23.0405 9.90968 23.0471 10.157 23.0744C10.3882 23.1 10.4777 23.1375 10.5302 23.1681L11.41 21.6552C11.0684 21.4566 10.713 21.3752 10.3496 21.335C10.0024 21.2966 9.58287 21.2903 9.10308 21.282L9.07293 23.0317ZM16.6534 24.3297C16.907 23.9011 17.067 23.6326 17.2086 23.4383C17.3394 23.2588 17.4148 23.2001 17.4701 23.1681L16.5903 21.6552C16.2516 21.8523 16.0073 22.1154 15.7944 22.4075C15.5922 22.6849 15.3843 23.0381 15.1473 23.4383L16.6534 24.3297ZM18.8972 21.282C18.4174 21.2903 17.9979 21.2966 17.6507 21.335C17.2872 21.3752 16.9319 21.4566 16.5903 21.6552L17.4701 23.1681C17.5226 23.1375 17.6122 23.1 17.8433 23.0744C18.0906 23.0471 18.4151 23.0405 18.9273 23.0317L18.8972 21.282Z" fill="#979798"/>
<path opacity="0.5" d="M9.3335 10.5H18.6668" stroke="#979798" stroke-width="2" stroke-linecap="round"/>
<path opacity="0.5" d="M9.3335 14.5835H15.7502" stroke="#979798" stroke-width="2" stroke-linecap="round"/>
</svg>
