<svg width="18" height="18" viewBox="0 0 18 18" fill="none" xmlns="http://www.w3.org/2000/svg">
<path d="M16.9991 12.9289V16.072C16.9992 16.297 16.914 16.5138 16.7605 16.6784C16.6071 16.843 16.397 16.9434 16.1725 16.9591C15.7841 16.9858 15.4668 17 15.2214 17C7.36676 17 1 10.6329 1 2.77778C1 2.53244 1.01333 2.21511 1.04089 1.82667C1.05664 1.60217 1.15695 1.39201 1.32159 1.23859C1.48622 1.08516 1.70291 0.999898 1.92795 1H5.07088C5.18114 0.999889 5.28749 1.04076 5.36929 1.11468C5.4511 1.18861 5.5025 1.2903 5.51353 1.4C5.53397 1.60444 5.55264 1.76711 5.57041 1.89067C5.74706 3.12349 6.10905 4.32252 6.64413 5.44711C6.72857 5.62489 6.67346 5.83733 6.51347 5.95111L4.59536 7.32178C5.76814 10.0546 7.94588 12.2325 10.6786 13.4053L12.0474 11.4907C12.1033 11.4124 12.185 11.3563 12.278 11.3321C12.3711 11.3079 12.4697 11.3172 12.5567 11.3582C13.6811 11.8924 14.8797 12.2535 16.112 12.4293C16.2356 12.4471 16.3983 12.4658 16.6009 12.4862C16.7104 12.4975 16.8119 12.549 16.8856 12.6307C16.9594 12.7125 16.9992 12.8188 16.9991 12.9289Z" fill="#FCFCFE"/>
</svg>
